HIERARCHY
ROOT mixamorig1:Hips
{
	OFFSET 0.000000 99.336189 0.000000
	CHANNELS 6 Xposition Yposition Zposition Xrotation Yrotation Zrotation
	JOINT mixamorig1:Spine
	{
		OFFSET 0.000000 11.233002 -0.973700
		CHANNELS 3 Xrotation Yrotation Zrotation
		JOINT mixamorig1:Spine1
		{
			OFFSET 0.000000 13.105156 -1.135997
			CHANNELS 3 Xrotation Yrotation Zrotation
			JOINT mixamorig1:Spine2
			{
				OFFSET 0.000000 14.977325 -1.298284
				CHANNELS 3 Xrotation Yrotation Zrotation
				JOINT mixamorig1:Neck
				{
					OFFSET 0.000000 16.849533 -1.460572
					CHANNELS 3 Xrotation Yrotation Zrotation
					JOINT mixamorig1:Head
					{
						OFFSET 0.000000 8.395096 2.751800
						CHANNELS 3 Xrotation Yrotation Zrotation
						JOINT mixamorig1:HeadTop_End
						{
							OFFSET 0.000000 20.559998 6.739200
							CHANNELS 3 Xrotation Yrotation Zrotation
							End Site
							{
								OFFSET 0.000000 21.636322 0.000000
							}
						}
					}
				}
				JOINT mixamorig1:LeftShoulder
				{
					OFFSET 7.265500 15.041840 -1.510848
					CHANNELS 3 Xrotation Yrotation Zrotation
					JOINT mixamorig1:LeftArm
					{
						OFFSET 14.705911 -3.419159 -0.100605
						CHANNELS 3 Xrotation Yrotation Zrotation
						JOINT mixamorig1:LeftForeArm
						{
							OFFSET 22.644602 0.000000 -0.000001
							CHANNELS 3 Xrotation Yrotation Zrotation
							JOINT mixamorig1:LeftHand
							{
								OFFSET 27.292511 0.000000 -0.000001
								CHANNELS 3 Xrotation Yrotation Zrotation
								JOINT mixamorig1:LeftHandThumb1
								{
									OFFSET 3.592728 -1.339874 2.558004
									CHANNELS 3 Xrotation Yrotation Zrotation
									JOINT mixamorig1:LeftHandThumb2
									{
										OFFSET 2.856293 -1.649078 1.649079
										CHANNELS 3 Xrotation Yrotation Zrotation
										JOINT mixamorig1:LeftHandThumb3
										{
											OFFSET 2.762619 -1.595001 1.594996
											CHANNELS 3 Xrotation Yrotation Zrotation
											JOINT mixamorig1:LeftHandThumb4
											{
												OFFSET 2.157494 -1.245636 1.245631
												CHANNELS 3 Xrotation Yrotation Zrotation
												End Site
												{
													OFFSET 2.301025 -1.232635 0.971529
												}
											}
										}
									}
								}
								JOINT mixamorig1:LeftHandIndex1
								{
									OFFSET 11.307251 0.013641 2.357859
									CHANNELS 3 Xrotation Yrotation Zrotation
									JOINT mixamorig1:LeftHandIndex2
									{
										OFFSET 3.147453 0.000000 -0.000000
										CHANNELS 3 Xrotation Yrotation Zrotation
										JOINT mixamorig1:LeftHandIndex3
										{
											OFFSET 2.795197 0.000000 -0.000000
											CHANNELS 3 Xrotation Yrotation Zrotation
											JOINT mixamorig1:LeftHandIndex4
											{
												OFFSET 2.307625 0.000000 0.000000
												CHANNELS 3 Xrotation Yrotation Zrotation
												End Site
												{
													OFFSET 2.306709 -0.001938 -0.065372
												}
											}
										}
									}
								}
								JOINT mixamorig1:LeftHandMiddle1
								{
									OFFSET 11.672340 0.000000 -0.000000
									CHANNELS 3 Xrotation Yrotation Zrotation
									JOINT mixamorig1:LeftHandMiddle2
									{
										OFFSET 3.342361 0.000000 0.000000
										CHANNELS 3 Xrotation Yrotation Zrotation
										JOINT mixamorig1:LeftHandMiddle3
										{
											OFFSET 3.109589 0.000000 0.000000
											CHANNELS 3 Xrotation Yrotation Zrotation
											JOINT mixamorig1:LeftHandMiddle4
											{
												OFFSET 2.501335 0.000000 0.000000
												CHANNELS 3 Xrotation Yrotation Zrotation
												End Site
												{
													OFFSET 2.501198 -0.000839 -0.025786
												}
											}
										}
									}
								}
								JOINT mixamorig1:LeftHandRing1
								{
									OFFSET 11.709946 -0.067230 -2.308804
									CHANNELS 3 Xrotation Yrotation Zrotation
									JOINT mixamorig1:LeftHandRing2
									{
										OFFSET 2.988022 0.000000 0.000000
										CHANNELS 3 Xrotation Yrotation Zrotation
										JOINT mixamorig1:LeftHandRing3
										{
											OFFSET 2.828934 0.000000 0.000000
											CHANNELS 3 Xrotation Yrotation Zrotation
											JOINT mixamorig1:LeftHandRing4
											{
												OFFSET 2.279938 0.000000 0.000000
												CHANNELS 3 Xrotation Yrotation Zrotation
												End Site
												{
													OFFSET 2.279907 0.000519 0.012489
												}
											}
										}
									}
								}
								JOINT mixamorig1:LeftHandPinky1
								{
									OFFSET 9.923668 0.038300 -4.298808
									CHANNELS 3 Xrotation Yrotation Zrotation
									JOINT mixamorig1:LeftHandPinky2
									{
										OFFSET 2.850029 0.000000 0.000000
										CHANNELS 3 Xrotation Yrotation Zrotation
										JOINT mixamorig1:LeftHandPinky3
										{
											OFFSET 2.533104 0.000000 0.000000
											CHANNELS 3 Xrotation Yrotation Zrotation
											JOINT mixamorig1:LeftHandPinky4
											{
												OFFSET 1.957939 0.000000 0.000000
												CHANNELS 3 Xrotation Yrotation Zrotation
												End Site
												{
													OFFSET 1.957901 -0.000824 -0.012874
												}
											}
										}
									}
								}
							}
						}
					}
				}
				JOINT mixamorig1:RightShoulder
				{
					OFFSET -7.265500 15.041824 -1.410270
					CHANNELS 3 Xrotation Yrotation Zrotation
					JOINT mixamorig1:RightArm
					{
						OFFSET -14.705913 -3.419144 0.100595
						CHANNELS 3 Xrotation Yrotation Zrotation
						JOINT mixamorig1:RightForeArm
						{
							OFFSET -22.663612 0.000000 -0.000000
							CHANNELS 3 Xrotation Yrotation Zrotation
							JOINT mixamorig1:RightHand
							{
								OFFSET -27.279198 0.000000 -0.000000
								CHANNELS 3 Xrotation Yrotation Zrotation
								JOINT mixamorig1:RightHandThumb1
								{
									OFFSET -3.614082 -1.434402 2.495070
									CHANNELS 3 Xrotation Yrotation Zrotation
									JOINT mixamorig1:RightHandThumb2
									{
										OFFSET -2.862930 -1.652908 1.652914
										CHANNELS 3 Xrotation Yrotation Zrotation
										JOINT mixamorig1:RightHandThumb3
										{
											OFFSET -2.705612 -1.562088 1.562088
											CHANNELS 3 Xrotation Yrotation Zrotation
											JOINT mixamorig1:RightHandThumb4
											{
												OFFSET -2.015022 -1.163376 1.163374
												CHANNELS 3 Xrotation Yrotation Zrotation
												End Site
												{
													OFFSET -1.976738 -1.162766 1.227872
												}
											}
										}
									}
								}
								JOINT mixamorig1:RightHandIndex1
								{
									OFFSET -11.470451 -0.091644 2.347321
									CHANNELS 3 Xrotation Yrotation Zrotation
									JOINT mixamorig1:RightHandIndex2
									{
										OFFSET -2.941315 0.000000 0.000000
										CHANNELS 3 Xrotation Yrotation Zrotation
										JOINT mixamorig1:RightHandIndex3
										{
											OFFSET -2.754845 0.000000 0.000000
											CHANNELS 3 Xrotation Yrotation Zrotation
											JOINT mixamorig1:RightHandIndex4
											{
												OFFSET -2.313835 0.000000 0.000000
												CHANNELS 3 Xrotation Yrotation Zrotation
												End Site
												{
													OFFSET -2.313408 -0.000702 -0.044995
												}
											}
										}
									}
								}
								JOINT mixamorig1:RightHandMiddle1
								{
									OFFSET -11.860054 0.000000 -0.000000
									CHANNELS 3 Xrotation Yrotation Zrotation
									JOINT mixamorig1:RightHandMiddle2
									{
										OFFSET -3.264450 0.000000 0.000000
										CHANNELS 3 Xrotation Yrotation Zrotation
										JOINT mixamorig1:RightHandMiddle3
										{
											OFFSET -2.980850 0.000000 0.000000
											CHANNELS 3 Xrotation Yrotation Zrotation
											JOINT mixamorig1:RightHandMiddle4
											{
												OFFSET -2.558609 0.000000 0.000000
												CHANNELS 3 Xrotation Yrotation Zrotation
												End Site
												{
													OFFSET -2.558502 -0.000549 -0.023293
												}
											}
										}
									}
								}
								JOINT mixamorig1:RightHandRing1
								{
									OFFSET -11.802956 0.056442 -2.371765
									CHANNELS 3 Xrotation Yrotation Zrotation
									JOINT mixamorig1:RightHandRing2
									{
										OFFSET -2.844910 0.000000 0.000000
										CHANNELS 3 Xrotation Yrotation Zrotation
										JOINT mixamorig1:RightHandRing3
										{
											OFFSET -2.915611 0.000000 0.000000
											CHANNELS 3 Xrotation Yrotation Zrotation
											JOINT mixamorig1:RightHandRing4
											{
												OFFSET -1.970497 0.000000 0.000000
												CHANNELS 3 Xrotation Yrotation Zrotation
												End Site
												{
													OFFSET -1.970505 -0.000015 -0.000200
												}
											}
										}
									}
								}
								JOINT mixamorig1:RightHandPinky1
								{
									OFFSET -10.057487 -0.110001 -4.433931
									CHANNELS 3 Xrotation Yrotation Zrotation
									JOINT mixamorig1:RightHandPinky2
									{
										OFFSET -2.744705 0.000000 0.000000
										CHANNELS 3 Xrotation Yrotation Zrotation
										JOINT mixamorig1:RightHandPinky3
										{
											OFFSET -2.484818 0.000000 0.000000
											CHANNELS 3 Xrotation Yrotation Zrotation
											JOINT mixamorig1:RightHandPinky4
											{
												OFFSET -1.925171 0.000000 0.000000
												CHANNELS 3 Xrotation Yrotation Zrotation
												End Site
												{
													OFFSET -1.924904 -0.001541 -0.032164
												}
											}
										}
									}
								}
							}
						}
					}
				}
			}
		}
	}
	JOINT mixamorig1:LeftUpLeg
	{
		OFFSET 10.365500 -6.239296 0.158300
		CHANNELS 3 Xrotation Yrotation Zrotation
		JOINT mixamorig1:LeftLeg
		{
			OFFSET -0.076655 -43.187546 -4.717540
			CHANNELS 3 Xrotation Yrotation Zrotation
			JOINT mixamorig1:LeftFoot
			{
				OFFSET 0.076655 -39.782711 -3.408075
				CHANNELS 3 Xrotation Yrotation Zrotation
				JOINT mixamorig1:LeftToeBase
				{
					OFFSET 5.737187 -9.507075 13.003977
					CHANNELS 3 Xrotation Yrotation Zrotation
					JOINT mixamorig1:LeftToe_End
					{
						OFFSET 2.487782 0.094252 5.924582
						CHANNELS 3 Xrotation Yrotation Zrotation
						End Site
						{
							OFFSET 2.487782 0.094252 5.924583
						}
					}
				}
			}
		}
	}
	JOINT mixamorig1:RightUpLeg
	{
		OFFSET -10.365500 -6.239296 0.042200
		CHANNELS 3 Xrotation Yrotation Zrotation
		JOINT mixamorig1:RightLeg
		{
			OFFSET 0.076658 -43.187538 -4.595327
			CHANNELS 3 Xrotation Yrotation Zrotation
			JOINT mixamorig1:RightFoot
			{
				OFFSET -0.076668 -39.782730 -3.208811
				CHANNELS 3 Xrotation Yrotation Zrotation
				JOINT mixamorig1:RightToeBase
				{
					OFFSET -5.737210 -9.506998 12.351665
					CHANNELS 3 Xrotation Yrotation Zrotation
					JOINT mixamorig1:RightToe_End
					{
						OFFSET -2.487793 0.094301 5.787009
						CHANNELS 3 Xrotation Yrotation Zrotation
						End Site
						{
							OFFSET -2.487793 0.094301 5.787010
						}
					}
				}
			}
		}
	}
}
MOTION
Frames: 4
Frame Time: 0.033333
-0.002739 98.431122 -0.002979 3.816337 -3.697472 -0.134765 0.170035 0.315183 -0.034887 0.511369 0.555629 -0.149995 0.508119 0.557001 -0.156049 -12.568422 -1.447143 2.637515 0.656498 2.743552 -0.479269 0.000001 -0.000000 0.000000 1.604988 -11.385832 -9.553325 4.329331 -15.663032 -64.423034 0.000013 -12.874659 -0.000011 1.693530 -1.937932 -8.457368 0.699755 -6.020152 19.223917 19.074671 26.512440 -1.026368 3.271074 -0.981146 3.963635 -0.000001 0.000006 0.000003 0.460233 4.491396 -23.662347 0.883077 3.094859 -31.844196 0.339540 1.967256 -19.583715 -0.000002 0.000003 0.000001 2.489887 8.739282 -25.419375 1.496288 3.911582 -41.853999 0.477048 2.317468 -23.260535 -0.000000 0.000003 0.000001 3.090044 8.505093 -34.940376 1.098161 3.416407 -35.630249 0.533261 2.443987 -24.613772 -0.000001 0.000001 0.000000 3.603267 12.761730 -45.581305 0.673740 2.729584 -27.725816 0.089997 1.024033 -10.045323 -0.000000 -0.000001 0.000001 2.087557 14.855760 10.815185 -4.515104 3.403406 66.314614 0.000024 7.534563 -0.000026 10.827029 0.053671 8.057294 -13.495573 -11.552047 -5.371135 13.666540 -20.582714 -6.820325 3.145884 -4.142414 -22.213575 -0.000002 -0.000001 0.000001 0.246056 -3.262788 18.902320 0.589420 -2.269672 29.112633 0.172146 -1.255802 15.610708 -0.000000 0.000001 0.000003 -0.702555 -1.215805 21.259794 0.924232 -2.786666 36.691824 0.558009 -2.212377 28.309449 -0.000000 0.000001 -0.000000 -0.941529 -2.664833 38.529254 0.358953 -1.794607 22.620036 0.313724 -1.682018 21.129359 -0.000000 -0.000000 -0.000000 -2.260395 -1.124653 39.408136 0.612391 -2.310416 29.687602 0.130092 -1.094182 13.559651 -0.000000 0.000002 0.000002 -14.202849 11.453886 11.062235 11.254240 4.935795 2.169223 -0.180469 0.621932 -10.150213 0.486152 0.000123 -0.235534 0.000000 0.000002 -0.000000 -13.462235 -7.919808 -8.950513 6.618959 1.310926 -2.872929 2.987350 -0.303255 10.570943 0.453974 -0.002077 0.243936 0.000000 0.000006 0.000000 
-0.054126 98.424133 -0.334511 3.932782 -3.813713 -0.097038 0.304656 0.321791 -0.061323 0.739134 0.564630 -0.173898 0.735917 0.566561 -0.179759 -13.023464 -1.430189 2.557676 0.207431 2.743550 -0.560908 -0.000001 0.000000 -0.000000 1.559808 -11.722497 -9.803980 3.326604 -15.782633 -63.368774 0.000002 -13.950100 -0.000020 0.992765 -2.335418 -6.398551 0.699756 -6.020157 19.223919 19.485526 27.133702 -1.459101 3.146121 -1.350043 4.531334 0.000000 0.000002 0.000003 0.422661 4.414399 -24.217870 0.892229 3.109532 -32.013438 0.320284 1.912283 -19.014632 -0.000002 0.000002 -0.000000 2.570854 8.777953 -26.166680 1.502856 3.918869 -41.950001 0.477047 2.317457 -23.260532 0.000000 -0.000006 -0.000000 3.068543 8.463753 -35.048887 1.094573 3.411395 -35.569996 0.537307 2.452812 -24.708636 0.000000 0.000001 -0.000000 3.576422 12.700701 -45.745288 0.674041 2.730163 -27.732178 0.091430 1.032022 -10.124345 -0.000001 -0.000002 -0.000000 2.008398 15.231540 11.002803 -2.108977 4.187908 65.701031 -0.000030 11.709481 0.000010 9.009479 -0.878715 6.504839 -13.495576 -11.552046 -5.371134 14.799420 -22.243457 -5.743279 3.142953 -4.001372 -22.194981 -0.000001 -0.000003 -0.000004 0.220873 -3.141891 19.544014 0.611384 -2.308605 29.662187 0.171821 -1.254635 15.595630 0.000000 -0.000000 0.000000 -0.870779 -0.926229 22.177843 0.929659 -2.793922 36.803385 0.557429 -2.211290 28.294264 0.000000 -0.000000 -0.000001 -1.267732 -2.378172 39.735042 0.359835 -1.796724 22.648294 0.312212 -1.678064 21.077429 -0.000000 -0.000000 0.000000 -2.676267 -0.759281 40.312179 0.596865 -2.282970 29.299934 0.127379 -1.082867 13.416715 0.000000 -0.000000 0.000000 -14.800405 11.265235 11.082847 11.870222 5.144050 2.172453 -0.282358 0.606045 -9.911079 0.302197 0.000044 -0.146639 0.000000 0.000000 -0.000000 -14.103335 -7.653628 -8.876302 7.242756 1.245671 -2.987059 2.897163 -0.291879 10.532515 0.479445 -0.002363 0.257555 -0.000000 0.000003 -0.000000 
-0.069357 98.374596 -0.889823 4.148308 -3.904060 -0.105804 0.426939 0.345036 -0.089602 0.943638 0.605215 -0.169990 0.940395 0.607433 -0.176099 -13.483356 -1.402734 2.459273 -0.245211 2.748824 -0.663110 -0.000001 -0.000000 0.000000 1.539839 -11.882551 -9.894608 3.259585 -16.219526 -62.272651 -0.000002 -16.424435 -0.000017 0.166384 -2.963448 -4.573668 0.699758 -6.020155 19.223916 19.721864 27.515689 -1.726150 3.059199 -1.562385 4.876873 -0.000000 0.000001 -0.000000 0.369735 4.307404 -24.687749 0.899373 3.120923 -32.144916 0.305817 1.869783 -18.576118 -0.000000 0.000003 -0.000000 2.619008 8.776858 -26.754283 1.508950 3.925620 -42.038991 0.477044 2.317463 -23.260529 0.000000 -0.000000 0.000000 3.023560 8.396986 -35.084284 1.094607 3.411457 -35.570621 0.540750 2.460259 -24.788990 -0.000000 0.000002 -0.000000 3.499843 12.626633 -45.640953 0.669662 2.721814 -27.639875 0.092311 1.036999 -10.173755 -0.000000 0.000001 -0.000001 1.971373 15.441939 10.952506 -0.285733 5.203846 65.061828 0.000010 15.070792 -0.000009 7.005313 -1.339956 4.944990 -13.495574 -11.552046 -5.371134 15.408138 -23.090218 -5.161090 3.133474 -3.886133 -22.225152 -0.000003 -0.000001 -0.000000 0.216615 -3.131167 20.340548 0.629851 -2.340714 30.117449 0.171581 -1.253792 15.585049 0.000000 0.000000 0.000000 -0.993035 -0.750097 22.938420 0.933932 -2.799614 36.890644 0.556845 -2.210209 28.279428 0.000000 -0.000001 -0.000001 -1.516252 -2.184998 40.696518 0.361501 -1.800728 22.701698 0.311921 -1.677312 21.067360 -0.000000 0.000002 0.000000 -2.982851 -0.508891 40.987180 0.588505 -2.268030 29.089615 0.125124 -1.073429 13.297490 -0.000000 0.000003 -0.000000 -15.879987 10.986799 11.247907 12.938799 5.331212 2.094136 -0.460847 0.605811 -9.814739 0.271477 0.000048 -0.131734 0.000000 -0.000003 -0.000000 -15.318398 -7.231253 -8.793544 8.583772 1.110679 -3.086912 2.582221 -0.281761 10.422365 0.605067 -0.002448 0.325074 0.000000 0.000006 -0.000000 
-0.075729 98.200798 -1.619301 4.606282 -4.028644 -0.138736 0.570961 0.369551 -0.109263 1.184293 0.648497 -0.163237 1.180987 0.651162 -0.167022 -13.998785 -1.342714 2.343738 -0.751774 2.780789 -0.789435 0.000000 -0.000000 0.000000 1.549316 -11.939114 -9.745270 3.925864 -16.807689 -61.044044 -0.000015 -20.436744 -0.000002 -1.055877 -3.441715 -3.120945 0.699754 -6.020160 19.223919 19.859036 27.783954 -1.909039 3.004495 -1.697395 5.116402 0.000001 0.000003 0.000001 0.311062 4.192976 -25.136575 0.905916 3.131299 -32.264939 0.295303 1.838249 -18.251333 -0.000001 0.000002 0.000001 2.639580 8.737165 -27.255035 1.513963 3.931173 -42.112429 0.477054 2.317472 -23.260539 0.000000 0.000004 -0.000000 2.950986 8.299091 -35.040561 1.095608 3.412858 -35.587656 0.543722 2.466683 -24.857901 0.000001 -0.000001 0.000000 3.372790 12.527470 -45.319299 0.661727 2.706631 -27.472436 0.092901 1.040236 -10.205912 0.000001 0.000002 0.000001 1.983902 15.499748 10.563559 1.112654 6.484010 64.368761 0.000004 18.586739 0.000002 3.620926 -0.627360 3.296856 -13.495578 -11.552051 -5.371138 15.619420 -23.369202 -4.963512 3.134998 -3.865161 -22.209893 0.000001 -0.000003 -0.000000 0.213674 -3.128533 20.995913 0.636534 -2.352183 30.280718 0.171124 -1.252193 15.564717 0.000001 0.000003 0.000003 -1.118481 -0.559045 23.562787 0.935514 -2.801737 36.923402 0.555763 -2.208205 28.251298 -0.000000 0.000002 0.000002 -1.765655 -1.987706 41.485753 0.363985 -1.806601 22.779835 0.310647 -1.674020 21.024183 -0.000000 -0.000002 0.000001 -3.360629 -0.171922 41.556421 0.583826 -2.259603 28.971087 0.123289 -1.065620 13.198992 0.000000 0.000001 0.000002 -18.036890 10.603848 11.716121 15.468341 5.370608 1.801370 -1.276522 0.642150 -9.661311 0.275711 0.000058 -0.133852 0.000000 -0.000001 -0.000000 -17.714164 -6.666629 -8.814118 11.602830 1.036590 -3.055313 1.529821 -0.310075 10.214197 0.745976 -0.002089 0.400772 -0.000000 0.000003 -0.000000 
